#!OML:ASF F:\VICON\USERDATA\INSTALL\rory3\rory3.ASF
:FULLY-SPECIFIED
:DEGREES
100
root 0.5763476184149983 17.598618834927077 24.203184583195398 3.3824241842205343 -4.093611988031495 -5.033980268401558
lfemur -23.916582515348992 9.945688150693687 -7.338285007810709
ltibia 105.56956250402841
lfoot 7.752575568193536 -11.602951814732343
ltoes -4.254382994866843
rfemur -19.120418021622143 3.364056582208829 33.48129031070377
rtibia 37.18653690924133
rfoot -19.573003563941832 -17.687691307456383
rtoes -9.341761400598193
lowerback nan -1.5590600784722288 0.633705870297949
upperback 0.28544722578868675 1.6424719243016155 1.112607885796582
thorax -7.283174748055783 -0.1263525293450174 2.08265661480925
lowerneck -18.230264380633496 -3.881341225333934 -2.4565603093619135
upperneck 7.574445533885459 -3.801553491074012 2.9908388221754354
head 5.394650481332963 -1.7503801181881924 0.9970282395454733
lclavicle 6.809216455538926e-15 -1.4436318653877892e-15
lhumerus -54.263333393727066 -3.47724012876957 89.71414373309476
lradius 100.03653354956255
lwrist 32.98140589929706
lhand -25.67019541020007 1.2132564660060163
lfingers nan
lthumb 0.9629808164998893 31.144448739265847
rclavicle 1.1011860070535392e-14 -3.785562837948903e-15
rhumerus -41.24309587949334 8.659421538403357 -97.25494531260502
rradius 113.30384145909402
rwrist -14.51318294520187
rhand -22.373658439922565 nan
rfingers nan
rthumb 3.6857875266193707 13.252188878130053
101
root 0.6095187487277917 17.620223842933644 24.693738653251 3.398025852266122 -2.794643916097474 -4.43998165095932
lfemur -27.117837143525797 8.9722607519882 -8.489758672403191
ltibia 105.38887290502235
lfoot 6.098333192966597 -9.904511894161596
ltoes -5.325956810016445
rfemur -17.51358417842766 2.251402418086383 32.683375750933195
rtibia 36.204052454865064
rfoot -20.1436302808714 -17.27161797025239
rtoes -9.188289220408794
lowerback nan -1.7474361630108945 0.47684943314468975
upperback 0.129524643837029 1.4443461602940104 0.9781031038637911
thorax -7.462387431420212 -0.2662646736483256 2.047781051998574
lowerneck -18.17014555991351 -4.042200450377473 -2.4758999616812947
upperneck 7.710057967760652 -3.992011406309733 3.080670953777036
head 5.428111590626055 -1.859901375584592 1.0004448259478367
lclavicle -2.9990129905379595e-14 -2.2526953453915083e-14
lhumerus -54.996990157874166 -3.918943773949555 90.16438280602891
lradius 100.39928413767035
lwrist 32.49297186831958
lhand -24.50049352719268 0.5689302011945361
lfingers nan
lthumb 2.053276550856893 30.442109343401416
rclavicle -2.5272620655044793e-14 -2.4383398632750617e-14
rhumerus -40.616222693957745 9.153050815934968 -97.17342057566545
rradius 114.68533917881817
rwrist -15.40948203262664
rhand -22.78410931379687 nan
rfingers nan
rthumb 3.3502361766351942 13.310572641683349
102
root 0.6442396601562951 17.67860664029798 24.81820329050326 3.728233103122001 -2.624871455047445 -4.360121577108101
lfemur -29.625116585884705 9.247761318984068 -8.937103596480753
ltibia 104.56579863837936
lfoot 4.059485541806588 -8.129222365288552
ltoes -4.499582241052559
rfemur -15.967425435245007 1.8016124679709167 32.183461257409995
rtibia 35.128142134311474
rfoot -20.486947844555033 -16.538838583711694
rtoes -11.0851911119881
lowerback nan -1.651284438029137 0.5816478699324326
upperback 0.08897388384800442 1.567829787982734 0.8664617698600341
thorax -6.771819988377797 -0.24725769896605898 1.950440466903957
lowerneck -18.459430948392157 -4.254776731079153 -2.523375662709826
upperneck 7.9562948705828145 -4.246145759842954 3.2678331640259426
head 5.566084122739767 -1.997311009288008 1.0240303532759245
lclavicle -2.4886627592010234e-14 -2.2747115547624978e-14
lhumerus -55.516546116327945 -4.380176295956064 90.65262031762374
lradius 100.75708830781261
lwrist 32.324030560788586
lhand -23.379042543079834 -0.2336256592776813
lfingers nan
lthumb 3.149185091395272 29.59094623439855
rclavicle -1.9696067039130428e-14 -2.4336759404689784e-14
rhumerus -40.29829405033104 9.381942705047319 -97.15931888633327
rradius 116.86053396280161
rwrist -16.923120721426198
rhand -23.626914599106282 nan
rfingers nan
rthumb 2.5624666658577597 14.164839315572872
103
root 0.6610310236573702 17.744232612475237 25.31879828229454 3.79093884765239 -2.1980019692108397 -4.4687583665854005
lfemur -31.716934548889046 9.178347464934177 -9.047920410234982
ltibia 103.51984468101347
lfoot 2.3550775932241375 -6.621594435965334
ltoes -4.284461261097409
rfemur -14.29211918633238 1.2201795075937165 32.04020734166608
rtibia 34.11925977463448
rfoot -20.224148921982426 -16.53215633797446
rtoes -15.77414087099001
lowerback nan -1.6100671472797 0.7109913397611773
upperback 0.09073510656904327 1.713984205830922 0.8084303940387308
thorax -6.681021400210671 -0.21181351367983103 1.8746522056036516
lowerneck -19.219418542446935 -4.464645648062097 -2.5758510562435224
upperneck 8.41510444512798 -4.501089647737783 3.4758652332836872
head 5.859922153809614 -2.1348470691209656 1.0457360019380357
lclavicle -3.836382104902465e-14 -3.457988539496141e-14
lhumerus -55.795123835161064 -4.971776242283447 91.14614390609259
lradius 101.21049593431313
lwrist 32.81484502707358
lhand -22.886275465334055 -1.2108955176376828
lfingers nan
lthumb 3.6521020841731895 28.589387678680296
rclavicle -3.274162724783479e-14 -3.584077649711693e-14
rhumerus -39.99380122096656 9.410032110413269 -97.11480787842709
rradius 119.14346586129587
rwrist -18.34595435588084
rhand -24.29868131787693 nan
rfingers nan
rthumb 2.0020552568805927 17.941891118040957
104
root 0.6820214056850199 17.799446608007468 25.246218107142056 3.9472230274789175 -1.7952453335049432 -4.491658451510583
lfemur -33.745593550539 8.743550181838748 -9.55388377426038
ltibia 102.15609092563719
lfoot 1.2619262825359248 -5.263621862520369
ltoes -3.831555295999703
rfemur -13.016791197812523 0.5597656282310406 31.695547557136464
rtibia 33.27972476329765
rfoot -19.41706135473624 -15.697550144377654
rtoes -16.91364327149644
lowerback nan -1.5696657157796934 0.8268381342103719
upperback -0.007785995347913688 1.8683649859192202 0.7088417402052659
thorax -6.800028873903564 -0.17401068922678553 1.8013583618878743
lowerneck -19.771255343547526 -4.653576815084081 -2.6169934631549725
upperneck 8.77972998116084 -4.728916717678387 3.672312635100422
head 6.085517765797032 -2.2687336636569593 1.0624803602854769
lclavicle -2.085994402504327e-14 -1.6181833459388647e-14
lhumerus -56.12340840568957 -5.532982917216359 91.6008742174812
lradius 101.77550428803917
lwrist 33.464175219208755
lhand -22.963049482488614 -1.3022285731297867
lfingers nan
lthumb 3.5007301539669244 28.44902692083761
rclavicle -1.4947586544447028e-14 -1.7501970003000104e-14
rhumerus -39.720694808752526 9.505941028023486 -96.91868794865854
rradius 121.14410298114043
rwrist -18.35373141784356
rhand -23.966572335549547 nan
rfingers nan
rthumb 2.385547627177565 17.1450290387603
105
root 0.7228533333818098 17.8670834346901 26.055127829282156 4.08862955673435 -1.1957986762042443 -4.340751898735753
lfemur -35.681256351924446 7.916346594118593 -10.423241804231868
ltibia 100.41745807451102
lfoot 0.7915665416651487 -3.880570903872221
ltoes -3.279261446886384
rfemur -11.647058421623363 -0.31045792106242587 31.02974031008242
rtibia 32.4776695493121
rfoot -17.399908504253105 -14.366406328313882
rtoes -18.742344666252617
lowerback nan -1.570845200835652 1.0397184426399475
upperback -0.23377347090843625 1.9984685547124061 0.5185135783234883
thorax -7.174577664079024 -0.16329486179551556 1.6325757065141413
lowerneck -19.621325102660442 -4.861448251948955 -2.5710734790086605
upperneck 8.794865743701829 -4.987325642729856 3.7755656210107706
head 6.072278214035348 -2.4332930575259146 1.044905012971985
lclavicle -2.2732645311005346e-14 1.3971592436266274e-14
lhumerus -56.76245024289813 -6.0544427734599875 91.91495962738611
lradius 102.59015870623361
lwrist 34.041938032798456
lhand -22.891236681768934 -0.5085700029752562
lfingers nan
lthumb 3.536980702187888 29.2246574307854
rclavicle -1.6874097472136277e-14 1.2465817067578563e-14
rhumerus -39.67673765825665 9.57180400214191 -96.90811793626025
rradius 122.92029408442659
rwrist -18.148646717437106
rhand -23.30669398996788 nan
rfingers nan
rthumb 3.0494721805232725 16.203278854985022
